<svg version="1" xmlns="http://www.w3.org/2000/svg" width="933.333" height="933.333" viewBox="0 0 700.000000 700.000000"><path d="M2 67.1v67.1l6.3-5c34.6-27.5 82.5-43.6 140.9-47.4 67.3-4.3 140.4 18 190.8 58.2 4.7 3.8 9.5 7.9 10.7 9.2l2.2 2.3-43.6 46.1-43.5 46.1-9.7-9.6c-15.2-15.2-33.6-26.1-55.4-33.1-29.2-9.3-64.6-7.6-87.2 4.3-8.5 4.5-19.7 15.8-23.4 23.6-5.6 11.8-6.5 28.8-2.2 40 7 18.5 23.2 28.2 77.9 47 61.7 21.3 74.4 26.1 92.4 35.2 19.9 10.2 42.2 26.5 53.2 39.1 4.5 5.1 4.5 5.1 5.6 2.7.5-1.3 25-59.8 54.4-129.9l53.4-127.5 67-.3 67-.2 3 7.2c1.7 4 33.3 80.2 70.2 169.3 37 89.1 67.4 162.2 67.6 162.4.2.2.4-106.3.4-236.7V0H2v67.1z"/><path d="M488.8 289.1c-16.9 45-70.9 192.2-70.6 192.5.3.2 32.2.3 71 .2l70.5-.3-34.3-95c-18.9-52.3-34.7-95.9-35.2-96.9-.7-1.5-1-1.6-1.4-.5zM2 446.2v66.2l3.3-3.2 3.2-3.1 11.6 11.2c28.3 27.4 66 45.1 102.9 48.2 9.4.8 28.8-.9 40-3.6 27.6-6.5 44.4-25.2 46.6-51.8 1.4-16.2-3.3-29.6-13.9-40.4-14.1-14.2-31-22.7-74.8-37.1-40-13.2-56-19-73.2-26.5-16.3-7.1-23.8-11.2-36.4-19.8L2 380v66.2zM376.6 596.2c-.9 2.4-9.9 26.3-19.9 53.3l-18.4 49 75.4.3c41.4.1 109.2.1 150.7 0l75.3-.3-21-53.2-21.1-53.3H378.2l-1.6 4.2zM2 676.5V699h186.7l5.6-13.2c3-7.3 5.4-13.4 5.2-13.6-.1-.2-6.5.8-14.1 2.2-35.2 6.3-72.5 6.5-109.2.5-21.5-3.5-47-10.5-66-18-4-1.6-7.5-2.9-7.7-2.9-.3 0-.5 10.1-.5 22.5z"/></svg>