<?xml version="1.0" encoding="utf-8"?>
<!-- Generator: Adobe Illustrator 15.0.0, SVG Export Plug-In . SVG Version: 6.00 Build 0)  -->
<!DOCTYPE svg PUBLIC "-//W3C//DTD SVG 1.1//EN" "http://www.w3.org/Graphics/SVG/1.1/DTD/svg11.dtd">
<svg version="1.1" xmlns="http://www.w3.org/2000/svg" xmlns:xlink="http://www.w3.org/1999/xlink" x="0px" y="0px" width="658px"
	 height="185.5px" viewBox="0 0 658 185.5" enable-background="new 0 0 658 185.5" xml:space="preserve">
<g id="favicon">
	<rect x="1.41" y="0.5" fill="#FF5722" width="183.771" height="183.771"/>
	<g>
		<defs>
			<rect id="SVGID_1_" x="1.41" y="0.5" width="183.771" height="183.771"/>
		</defs>
		<clipPath id="SVGID_2_">
			<use xlink:href="#SVGID_1_"  overflow="visible"/>
		</clipPath>
		<g clip-path="url(#SVGID_2_)">
			<path fill="#3F51B5" d="M76.796,40.279c-3.213-4.086-7.412-7.336-12.593-9.746c-5.184-2.409-10.183-3.614-15.001-3.614
				c-2.484,0-5.002,0.219-7.555,0.657c-2.556,0.438-4.856,1.28-6.898,2.519c-2.046,1.242-3.761,2.847-5.146,4.818
				c-1.39,1.971-2.081,4.49-2.081,7.556c0,2.628,0.547,4.818,1.643,6.57c1.095,1.752,2.7,3.285,4.818,4.599
				c2.115,1.314,4.633,2.519,7.555,3.613c2.919,1.095,6.204,2.228,9.855,3.395c5.256,1.752,10.731,3.689,16.425,5.804
				c5.694,2.118,10.875,4.927,15.549,8.432c4.671,3.504,8.541,7.85,11.607,13.03c3.066,5.184,4.599,11.645,4.599,19.381
				c0,8.907-1.643,16.61-4.927,23.104c-3.285,6.499-7.703,11.864-13.25,16.097c-5.55,4.236-11.901,7.374-19.053,9.417
				c-7.155,2.043-14.529,3.066-22.119,3.066c-11.097,0-21.828-1.937-32.193-5.803c-10.368-3.867-18.981-9.379-25.842-16.535
				l24.528-24.966c3.795,4.674,8.794,8.579,15.001,11.716c6.204,3.141,12.374,4.708,18.505,4.708c2.772,0,5.475-0.291,8.103-0.876
				c2.628-0.582,4.928-1.533,6.898-2.847c1.971-1.314,3.539-3.066,4.708-5.256c1.167-2.19,1.752-4.818,1.752-7.884
				c0-2.919-0.732-5.4-2.19-7.446c-1.461-2.043-3.542-3.904-6.241-5.584c-2.703-1.677-6.06-3.209-10.074-4.599
				c-4.017-1.386-8.579-2.881-13.688-4.489c-4.965-1.605-9.821-3.504-14.563-5.694c-4.746-2.19-8.979-5-12.702-8.432
				c-3.723-3.429-6.717-7.59-8.979-12.483c-2.266-4.89-3.395-10.841-3.395-17.849c0-8.613,1.752-15.987,5.256-22.119
				c3.504-6.132,8.103-11.169,13.797-15.111s12.117-6.823,19.272-8.65c7.152-1.824,14.379-2.738,21.681-2.738
				c8.76,0,17.701,1.608,26.828,4.818c9.123,3.213,17.116,7.959,23.98,14.235L76.796,40.279z"/>
		</g>
		<g clip-path="url(#SVGID_2_)">
			<path fill="#3F51B5" d="M171.78,184.611l-12.045-30.441H99.729l-11.388,30.441H47.607L112.65,29.56h36.354l64.386,155.052H171.78
				z M130.17,70.95l-19.71,53.217h38.982L130.17,70.95z"/>
		</g>
	</g>
</g>
<g id="type">
	<g>
		<path fill="#3F51B5" d="M245.368,41.904c-1.26-1.739-2.97-3.164-5.13-4.275c-2.16-1.109-4.59-1.665-7.29-1.665
			c-1.44,0-2.896,0.196-4.365,0.585c-1.471,0.391-2.805,1.021-4.005,1.89c-1.201,0.871-2.175,1.951-2.925,3.24
			c-0.751,1.291-1.125,2.835-1.125,4.635c0,1.741,0.344,3.195,1.035,4.365c0.689,1.17,1.62,2.16,2.79,2.97
			c1.17,0.81,2.55,1.5,4.14,2.07c1.589,0.571,3.285,1.156,5.085,1.755c2.16,0.661,4.35,1.41,6.57,2.25
			c2.219,0.841,4.23,1.95,6.03,3.33c1.8,1.381,3.27,3.105,4.41,5.175c1.139,2.07,1.71,4.695,1.71,7.875
			c0,3.3-0.616,6.165-1.845,8.595c-1.23,2.43-2.866,4.441-4.905,6.03c-2.041,1.59-4.396,2.776-7.065,3.555
			c-2.67,0.779-5.416,1.17-8.235,1.17c-4.021,0-7.906-0.781-11.655-2.34c-3.75-1.559-6.855-3.87-9.315-6.93l6.93-5.85
			c1.5,2.221,3.51,4.021,6.03,5.4c2.52,1.381,5.25,2.07,8.19,2.07c1.499,0,3-0.21,4.5-0.63c1.499-0.419,2.865-1.08,4.095-1.98
			c1.229-0.9,2.234-2.025,3.015-3.375c0.779-1.35,1.17-2.984,1.17-4.905c0-1.919-0.405-3.524-1.215-4.815
			c-0.81-1.29-1.905-2.385-3.285-3.285c-1.381-0.9-2.985-1.665-4.815-2.295c-1.831-0.63-3.766-1.274-5.805-1.935
			c-2.041-0.599-4.05-1.334-6.03-2.205c-1.98-0.869-3.75-1.98-5.31-3.33c-1.561-1.35-2.821-3.015-3.78-4.995
			c-0.96-1.98-1.44-4.44-1.44-7.38c0-3.179,0.644-5.909,1.935-8.19c1.29-2.279,2.97-4.169,5.04-5.67
			c2.07-1.499,4.41-2.595,7.02-3.285c2.61-0.689,5.234-1.035,7.875-1.035c3.719,0,7.2,0.661,10.44,1.98
			c3.24,1.32,5.85,3.091,7.83,5.31L245.368,41.904z"/>
		<path fill="#3F51B5" d="M302.787,58.104h-11.34v22.163c0,2.572,0.479,4.411,1.44,5.518c0.959,1.106,2.489,1.659,4.59,1.659
			c0.779,0,1.62-0.082,2.52-0.248c0.9-0.165,1.71-0.412,2.43-0.742l0.27,6.93c-1.021,0.36-2.146,0.644-3.375,0.855
			c-1.23,0.21-2.506,0.315-3.825,0.315c-4.021,0-7.096-1.11-9.225-3.33c-2.13-2.219-3.195-5.549-3.195-9.99v-23.13h-8.19v-6.93h8.19
			v-12.24h8.37v12.24h11.34V58.104z"/>
		<path fill="#3F51B5" d="M356.066,66.204c0-3.18-0.96-5.535-2.88-7.065c-1.921-1.53-4.47-2.295-7.65-2.295
			c-2.4,0-4.666,0.466-6.795,1.395c-2.13,0.931-3.915,2.115-5.355,3.555l-4.5-5.4c2.1-1.98,4.665-3.54,7.695-4.68
			c3.029-1.139,6.285-1.71,9.765-1.71c3.06,0,5.715,0.436,7.965,1.305c2.25,0.871,4.095,2.056,5.535,3.555
			c1.44,1.5,2.52,3.271,3.24,5.31c0.72,2.041,1.08,4.23,1.08,6.57v18.63c0,1.44,0.045,2.956,0.135,4.545
			c0.09,1.59,0.254,2.896,0.495,3.915h-7.65c-0.481-2.039-0.72-4.08-0.72-6.12h-0.27c-1.561,2.281-3.526,4.05-5.895,5.31
			c-2.371,1.26-5.175,1.89-8.415,1.89c-1.681,0-3.436-0.225-5.265-0.675c-1.831-0.45-3.496-1.184-4.995-2.205
			c-1.5-1.02-2.745-2.37-3.735-4.05c-0.99-1.679-1.485-3.749-1.485-6.21c0-3.24,0.869-5.805,2.61-7.695
			c1.74-1.89,4.019-3.33,6.84-4.32c2.82-0.99,5.999-1.634,9.54-1.935c3.54-0.3,7.11-0.45,10.71-0.45V66.204z M353.996,73.494
			c-2.101,0-4.275,0.09-6.525,0.27c-2.25,0.18-4.291,0.54-6.12,1.08c-1.831,0.54-3.346,1.35-4.545,2.43
			c-1.201,1.08-1.8,2.52-1.8,4.32c0,1.26,0.255,2.311,0.765,3.15c0.509,0.841,1.184,1.53,2.025,2.07
			c0.84,0.54,1.769,0.916,2.79,1.125c1.02,0.211,2.07,0.315,3.15,0.315c3.96,0,7.005-1.184,9.135-3.555
			c2.129-2.37,3.195-5.355,3.195-8.955v-2.25H353.996z"/>
		<path fill="#3F51B5" d="M396.206,55.944c-0.061-1.8-0.151-3.389-0.27-4.77h8.01c0.12,1.08,0.209,2.326,0.27,3.735
			c0.059,1.41,0.09,2.565,0.09,3.465h0.27c1.2-2.52,2.955-4.545,5.265-6.075c2.309-1.53,4.905-2.295,7.785-2.295
			c1.319,0,2.43,0.121,3.33,0.36l-0.36,7.83c-1.201-0.299-2.49-0.45-3.87-0.45c-2.041,0-3.811,0.375-5.31,1.125
			c-1.5,0.751-2.745,1.755-3.735,3.015c-0.99,1.26-1.725,2.716-2.205,4.365c-0.481,1.651-0.72,3.375-0.72,5.175v22.41h-8.46v-33.48
			C396.295,59.215,396.265,57.744,396.206,55.944z"/>
		<path fill="#3F51B5" d="M471.445,58.104h-11.34v22.163c0,2.572,0.479,4.411,1.44,5.518c0.959,1.106,2.489,1.659,4.59,1.659
			c0.779,0,1.62-0.082,2.52-0.248c0.9-0.165,1.71-0.412,2.43-0.742l0.27,6.93c-1.021,0.36-2.146,0.644-3.375,0.855
			c-1.23,0.21-2.506,0.315-3.825,0.315c-4.021,0-7.096-1.11-9.225-3.33c-2.13-2.219-3.195-5.549-3.195-9.99v-23.13h-8.19v-6.93h8.19
			v-12.24h8.37v12.24h11.34V58.104z"/>
		<path fill="#3F51B5" d="M528.235,93.834c-0.121-1.08-0.211-2.295-0.27-3.645c-0.061-1.35-0.09-2.475-0.09-3.375h-0.18
			c-1.08,2.281-2.896,4.216-5.445,5.805c-2.551,1.589-5.386,2.385-8.505,2.385c-2.76,0-5.146-0.45-7.155-1.35
			c-2.011-0.9-3.661-2.145-4.95-3.735c-1.291-1.589-2.25-3.434-2.88-5.535c-0.63-2.099-0.945-4.349-0.945-6.75v-26.46h8.46v23.58
			c0,1.741,0.135,3.406,0.405,4.995c0.27,1.59,0.765,2.985,1.485,4.185c0.72,1.201,1.71,2.16,2.97,2.88s2.88,1.08,4.86,1.08
			c3.42,0,6.179-1.274,8.28-3.825c2.1-2.549,3.15-5.954,3.15-10.215v-22.68h8.46v33.48c0,1.141,0.029,2.61,0.09,4.41
			c0.059,1.8,0.149,3.391,0.27,4.77H528.235z"/>
		<path fill="#3F51B5" d="M575.214,115.434h-8.46v-64.26h8.28v6.66h0.27c1.375-2.279,3.396-4.154,6.06-5.625
			c2.664-1.47,5.76-2.205,9.292-2.205c3.173,0,6.06,0.571,8.664,1.71c2.603,1.141,4.847,2.731,6.733,4.77
			c1.885,2.041,3.336,4.426,4.354,7.155c1.018,2.731,1.527,5.656,1.527,8.775c0,3.121-0.509,6.061-1.527,8.82
			c-1.018,2.761-2.454,5.161-4.309,7.2c-1.856,2.041-4.101,3.645-6.733,4.815c-2.634,1.17-5.597,1.755-8.887,1.755
			c-3.053,0-5.926-0.661-8.619-1.98c-2.694-1.319-4.819-3.18-6.375-5.58h-0.27V115.434z M603.294,72.414
			c0-1.98-0.301-3.899-0.9-5.76c-0.601-1.859-1.5-3.51-2.7-4.95c-1.201-1.44-2.686-2.579-4.455-3.42
			c-1.771-0.84-3.825-1.26-6.165-1.26c-2.16,0-4.126,0.42-5.895,1.26c-1.771,0.841-3.285,1.98-4.545,3.42
			c-1.26,1.44-2.236,3.091-2.925,4.95c-0.69,1.861-1.035,3.811-1.035,5.85c0,2.041,0.345,3.991,1.035,5.85
			c0.689,1.86,1.665,3.496,2.925,4.905c1.26,1.411,2.774,2.536,4.545,3.375c1.769,0.841,3.735,1.26,5.895,1.26
			c2.34,0,4.395-0.435,6.165-1.305c1.769-0.869,3.254-2.025,4.455-3.465c1.2-1.44,2.1-3.089,2.7-4.95
			C602.993,76.315,603.294,74.394,603.294,72.414z"/>
		<path fill="#3F51B5" d="M216.298,183.833h-9.9l27.63-63.72h8.1l27.36,63.72h-10.08l-6.48-15.66h-30.24L216.298,183.833z
			 M225.838,160.343h23.85l-11.88-29.88L225.838,160.343z"/>
		<path fill="#3F51B5" d="M303.868,183.833h-8.46v-68.04h8.46V183.833z"/>
		<path fill="#3F51B5" d="M345.267,183.833h-8.46v-68.04h8.46V183.833z"/>
		<path fill="#3F51B5" d="M387.927,125.784c0,1.561-0.551,2.85-1.652,3.87c-1.101,1.021-2.426,1.53-3.973,1.53
			s-2.856-0.524-3.928-1.575c-1.071-1.049-1.607-2.324-1.607-3.825c0-1.56,0.536-2.865,1.607-3.915
			c1.072-1.049,2.381-1.575,3.928-1.575s2.872,0.526,3.973,1.575C387.375,122.919,387.927,124.224,387.927,125.784z
			 M386.577,183.833h-8.46v-42.66h8.46V183.833z"/>
		<path fill="#3F51B5" d="M445.885,156.204c0-3.18-0.96-5.535-2.88-7.065c-1.921-1.53-4.47-2.295-7.65-2.295
			c-2.4,0-4.666,0.466-6.795,1.395c-2.13,0.931-3.915,2.115-5.355,3.555l-4.5-5.4c2.1-1.98,4.665-3.54,7.695-4.68
			c3.029-1.139,6.285-1.71,9.765-1.71c3.06,0,5.715,0.436,7.965,1.305c2.25,0.871,4.095,2.056,5.535,3.555
			c1.44,1.5,2.52,3.271,3.24,5.31c0.72,2.041,1.08,4.23,1.08,6.57v18.63c0,1.44,0.045,2.956,0.135,4.545
			c0.09,1.591,0.254,2.896,0.495,3.915h-7.65c-0.481-2.039-0.72-4.079-0.72-6.12h-0.27c-1.561,2.281-3.526,4.05-5.895,5.311
			c-2.371,1.26-5.175,1.89-8.415,1.89c-1.681,0-3.436-0.225-5.265-0.675c-1.831-0.45-3.496-1.185-4.995-2.205
			c-1.5-1.02-2.745-2.37-3.735-4.05s-1.485-3.749-1.485-6.21c0-3.24,0.869-5.806,2.61-7.695c1.74-1.89,4.019-3.33,6.84-4.32
			c2.82-0.99,5.999-1.634,9.54-1.935c3.54-0.3,7.11-0.45,10.71-0.45V156.204z M443.815,163.494c-2.101,0-4.275,0.09-6.525,0.27
			c-2.25,0.18-4.291,0.541-6.12,1.08c-1.831,0.54-3.346,1.351-4.545,2.431c-1.201,1.079-1.8,2.52-1.8,4.319
			c0,1.26,0.255,2.311,0.765,3.15c0.509,0.841,1.184,1.53,2.025,2.07c0.84,0.539,1.769,0.915,2.79,1.125
			c1.02,0.211,2.07,0.314,3.15,0.314c3.96,0,7.005-1.184,9.135-3.555c2.129-2.37,3.195-5.355,3.195-8.955v-2.25H443.815z"/>
		<path fill="#3F51B5" d="M493.765,141.173c0.12,1.08,0.209,2.295,0.27,3.645c0.059,1.35,0.09,2.475,0.09,3.375h0.27
			c0.54-1.139,1.274-2.205,2.205-3.195c0.93-0.99,1.994-1.859,3.195-2.61c1.199-0.75,2.52-1.334,3.96-1.755
			c1.44-0.419,2.939-0.63,4.5-0.63c2.759,0,5.13,0.465,7.11,1.395c1.98,0.931,3.629,2.175,4.95,3.735
			c1.319,1.561,2.295,3.391,2.925,5.49c0.63,2.101,0.945,4.351,0.945,6.75v26.46h-8.46v-23.67c0-1.74-0.135-3.389-0.405-4.95
			c-0.27-1.56-0.765-2.939-1.485-4.14c-0.72-1.2-1.71-2.16-2.97-2.88c-1.26-0.72-2.88-1.08-4.86-1.08
			c-3.361,0-6.106,1.276-8.235,3.825c-2.13,2.551-3.195,5.956-3.195,10.215v22.68h-8.46v-33.48c0-1.139-0.031-2.61-0.09-4.41
			c-0.061-1.8-0.151-3.389-0.27-4.77H493.765z"/>
		<path fill="#3F51B5" d="M584.573,151.974c-0.9-1.38-2.25-2.534-4.05-3.465c-1.8-0.929-3.721-1.395-5.76-1.395
			c-2.22,0-4.185,0.421-5.895,1.26c-1.71,0.841-3.166,1.966-4.365,3.375c-1.201,1.411-2.115,3.046-2.745,4.905
			c-0.63,1.861-0.945,3.811-0.945,5.85c0,2.041,0.315,3.991,0.945,5.85c0.63,1.861,1.544,3.496,2.745,4.905
			c1.199,1.411,2.669,2.536,4.41,3.375c1.74,0.841,3.72,1.26,5.94,1.26c2.16,0,4.125-0.419,5.895-1.26
			c1.769-0.839,3.224-1.979,4.365-3.42l5.67,5.13c-1.8,2.102-4.05,3.735-6.75,4.905c-2.7,1.17-5.76,1.755-9.18,1.755
			c-3.301,0-6.345-0.54-9.135-1.62s-5.206-2.595-7.245-4.545c-2.041-1.949-3.645-4.305-4.815-7.064s-1.755-5.851-1.755-9.271
			c0-3.359,0.569-6.419,1.71-9.18c1.139-2.759,2.729-5.13,4.77-7.11c2.039-1.98,4.455-3.51,7.245-4.59s5.805-1.62,9.045-1.62
			c3,0,5.985,0.601,8.955,1.8c2.97,1.201,5.324,2.94,7.065,5.22L584.573,151.974z"/>
		<path fill="#3F51B5" d="M657.022,162.144c0,0.481,0,0.96,0,1.44c0,0.481-0.031,0.961-0.09,1.44h-33.93
			c0.059,1.788,0.464,3.472,1.215,5.05c0.75,1.579,1.755,2.95,3.015,4.111c1.26,1.162,2.714,2.07,4.365,2.726
			c1.65,0.655,3.405,0.982,5.265,0.982c2.88,0,5.369-0.63,7.47-1.89c2.1-1.26,3.748-2.79,4.949-4.59l5.941,4.77
			c-2.281,3.023-4.967,5.25-8.057,6.679c-3.09,1.428-6.524,2.142-10.304,2.142c-3.24,0-6.241-0.54-9-1.62
			c-2.76-1.08-5.13-2.595-7.11-4.545c-1.98-1.949-3.541-4.305-4.68-7.064c-1.141-2.76-1.71-5.819-1.71-9.181
			c0-3.299,0.556-6.345,1.668-9.135s2.661-5.175,4.645-7.155c1.984-1.98,4.33-3.524,7.036-4.635
			c2.706-1.109,5.621-1.665,8.748-1.665c3.126,0,5.967,0.511,8.524,1.53c2.555,1.021,4.719,2.49,6.492,4.41
			c1.773,1.921,3.143,4.246,4.104,6.975C656.542,155.649,657.022,158.724,657.022,162.144z M648.381,158.724
			c-0.059-1.679-0.346-3.254-0.854-4.725c-0.512-1.47-1.26-2.745-2.25-3.825s-2.221-1.935-3.69-2.565
			c-1.471-0.63-3.195-0.945-5.175-0.945c-1.8,0-3.496,0.315-5.085,0.945c-1.59,0.63-2.97,1.485-4.14,2.565
			c-1.17,1.08-2.131,2.355-2.88,3.825c-0.751,1.471-1.185,3.046-1.305,4.725H648.381z"/>
	</g>
</g>
</svg>
