<?xml version="1.0" encoding="utf-8"?>
<!-- Generator: Adobe Illustrator 15.0.0, SVG Export Plug-In . SVG Version: 6.00 Build 0)  -->
<!DOCTYPE svg PUBLIC "-//W3C//DTD SVG 1.1//EN" "http://www.w3.org/Graphics/SVG/1.1/DTD/svg11.dtd">
<svg version="1.1" xmlns="http://www.w3.org/2000/svg" xmlns:xlink="http://www.w3.org/1999/xlink" x="0px" y="0px"
	 width="618.916px" height="84.175px" viewBox="0 0 618.916 84.175" enable-background="new 0 0 618.916 84.175"
	 xml:space="preserve">
<g id="Layer_1">
</g>
<g id="type">
	<g>
		<path fill="#3F51B5" d="M15.395,51.573c0.796,1.534,1.855,2.777,3.175,3.727c1.319,0.952,2.868,1.657,4.648,2.117
			c1.779,0.46,3.62,0.69,5.522,0.69c1.289,0,2.669-0.106,4.142-0.322c1.473-0.214,2.853-0.628,4.142-1.242
			c1.288-0.613,2.361-1.457,3.221-2.531c0.858-1.073,1.288-2.439,1.288-4.096c0-1.779-0.568-3.221-1.703-4.326
			c-1.136-1.104-2.623-2.025-4.463-2.761c-1.841-0.736-3.927-1.381-6.258-1.933c-2.333-0.552-4.694-1.165-7.086-1.84
			c-2.455-0.613-4.848-1.365-7.179-2.255c-2.333-0.889-4.418-2.039-6.258-3.451c-1.841-1.411-3.329-3.175-4.464-5.292
			c-1.136-2.117-1.703-4.678-1.703-7.685c0-3.374,0.721-6.304,2.163-8.789C6.021,9.1,7.908,7.029,10.24,5.372
			c2.331-1.657,4.97-2.883,7.915-3.681c2.945-0.797,5.89-1.196,8.835-1.196c3.436,0,6.733,0.384,9.894,1.15
			c3.159,0.768,5.966,2.01,8.421,3.727c2.454,1.719,4.402,3.912,5.844,6.581c1.441,2.669,2.163,5.906,2.163,9.709H39.323
			c-0.124-1.963-0.538-3.589-1.243-4.878c-0.706-1.288-1.642-2.301-2.807-3.037c-1.166-0.736-2.5-1.257-4.003-1.564
			c-1.504-0.306-3.145-0.46-4.924-0.46c-1.166,0-2.333,0.124-3.497,0.368c-1.167,0.246-2.225,0.676-3.175,1.288
			c-0.952,0.614-1.734,1.381-2.347,2.301c-0.614,0.92-0.92,2.086-0.92,3.497c0,1.289,0.245,2.333,0.736,3.129
			c0.49,0.798,1.457,1.535,2.899,2.209c1.441,0.676,3.436,1.351,5.982,2.025c2.545,0.676,5.874,1.534,9.985,2.577
			c1.227,0.246,2.929,0.69,5.108,1.334c2.177,0.645,4.34,1.672,6.488,3.083c2.147,1.412,4.003,3.299,5.568,5.66
			c1.564,2.363,2.347,5.384,2.347,9.065c0,3.007-0.584,5.798-1.749,8.375c-1.167,2.577-2.899,4.802-5.2,6.672
			c-2.301,1.873-5.154,3.329-8.559,4.372c-3.405,1.042-7.348,1.564-11.826,1.564c-3.621,0-7.133-0.446-10.538-1.334
			c-3.405-0.889-6.413-2.285-9.02-4.188c-2.608-1.901-4.679-4.326-6.212-7.271c-1.534-2.945-2.271-6.442-2.208-10.492h13.989
			C14.198,48.168,14.596,50.04,15.395,51.573z"/>
		<path fill="#3F51B5" d="M86.996,20.189v8.743h-9.572v23.561c0,2.208,0.368,3.681,1.104,4.417s2.209,1.104,4.418,1.104
			c0.736,0,1.441-0.03,2.117-0.092c0.674-0.061,1.318-0.152,1.933-0.276v10.124c-1.104,0.184-2.333,0.306-3.681,0.368
			c-1.351,0.061-2.669,0.092-3.958,0.092c-2.025,0-3.943-0.138-5.752-0.414c-1.811-0.276-3.405-0.812-4.786-1.61
			c-1.38-0.797-2.471-1.933-3.267-3.405c-0.798-1.473-1.196-3.405-1.196-5.798v-28.07H56.44v-8.743h7.915V5.924h13.068v14.265
			H86.996z"/>
		<path fill="#3F51B5" d="M90.86,34.823c0.184-3.067,0.951-5.614,2.301-7.639c1.349-2.025,3.067-3.649,5.154-4.878
			c2.085-1.227,4.432-2.101,7.041-2.623c2.607-0.521,5.23-0.782,7.869-0.782c2.393,0,4.816,0.169,7.271,0.506
			c2.454,0.338,4.694,0.998,6.719,1.979c2.024,0.982,3.681,2.347,4.97,4.095s1.933,4.065,1.933,6.949v24.757
			c0,2.148,0.123,4.204,0.368,6.167c0.245,1.964,0.674,3.437,1.289,4.417H122.52c-0.246-0.736-0.446-1.487-0.598-2.255
			c-0.154-0.767-0.262-1.549-0.322-2.347c-2.086,2.148-4.541,3.651-7.363,4.51c-2.823,0.858-5.706,1.288-8.651,1.288
			c-2.271,0-4.388-0.276-6.351-0.828c-1.964-0.552-3.681-1.411-5.154-2.577c-1.473-1.165-2.623-2.637-3.451-4.417
			c-0.828-1.779-1.242-3.896-1.242-6.35c0-2.699,0.474-4.924,1.426-6.673c0.951-1.749,2.177-3.143,3.681-4.188
			c1.503-1.042,3.221-1.825,5.154-2.347c1.933-0.521,3.879-0.935,5.844-1.243c1.963-0.306,3.896-0.552,5.798-0.736
			c1.901-0.184,3.589-0.46,5.062-0.829c1.472-0.368,2.637-0.904,3.497-1.61c0.858-0.705,1.257-1.733,1.196-3.083
			c0-1.411-0.23-2.531-0.69-3.359c-0.46-0.829-1.074-1.473-1.841-1.933c-0.768-0.46-1.657-0.767-2.669-0.92
			c-1.012-0.152-2.103-0.23-3.267-0.23c-2.577,0-4.602,0.552-6.074,1.656c-1.473,1.104-2.333,2.945-2.577,5.522H90.86z
			 M121.047,44.486c-0.552,0.492-1.242,0.875-2.071,1.15c-0.828,0.276-1.718,0.506-2.669,0.69c-0.952,0.184-1.948,0.338-2.991,0.46
			c-1.044,0.124-2.087,0.276-3.129,0.46c-0.982,0.184-1.948,0.43-2.899,0.736c-0.952,0.308-1.78,0.722-2.485,1.242
			c-0.706,0.522-1.274,1.182-1.703,1.979c-0.43,0.798-0.645,1.811-0.645,3.037c0,1.166,0.214,2.148,0.645,2.945
			c0.428,0.798,1.012,1.427,1.749,1.887c0.736,0.46,1.595,0.782,2.577,0.966c0.98,0.184,1.993,0.276,3.037,0.276
			c2.577,0,4.57-0.429,5.982-1.289c1.411-0.858,2.453-1.887,3.129-3.083c0.674-1.197,1.088-2.407,1.242-3.635
			c0.152-1.227,0.23-2.209,0.23-2.945V44.486z"/>
		<path fill="#3F51B5" d="M154.822,20.189v8.835h0.184c0.612-1.473,1.441-2.837,2.485-4.096c1.042-1.257,2.239-2.331,3.589-3.221
			c1.349-0.889,2.791-1.579,4.325-2.071c1.533-0.49,3.129-0.736,4.786-0.736c0.858,0,1.809,0.154,2.853,0.46V31.51
			c-0.614-0.122-1.351-0.23-2.209-0.322c-0.86-0.092-1.688-0.138-2.485-0.138c-2.393,0-4.417,0.399-6.074,1.196
			c-1.657,0.798-2.991,1.887-4.003,3.267c-1.013,1.38-1.734,2.991-2.163,4.832c-0.43,1.841-0.644,3.835-0.644,5.982v21.444h-13.069
			V20.189H154.822z"/>
		<path fill="#3F51B5" d="M206.269,20.189v8.743h-9.572v23.561c0,2.208,0.368,3.681,1.104,4.417s2.209,1.104,4.418,1.104
			c0.736,0,1.441-0.03,2.117-0.092c0.674-0.061,1.318-0.152,1.933-0.276v10.124c-1.104,0.184-2.333,0.306-3.681,0.368
			c-1.351,0.061-2.669,0.092-3.958,0.092c-2.025,0-3.943-0.138-5.752-0.414c-1.811-0.276-3.405-0.812-4.786-1.61
			c-1.38-0.797-2.471-1.933-3.267-3.405c-0.798-1.473-1.196-3.405-1.196-5.798v-28.07h-7.915v-8.743h7.915V5.924h13.068v14.265
			H206.269z"/>
		<path fill="#3F51B5" d="M242.897,67.771v-6.626h-0.276c-1.656,2.761-3.805,4.755-6.442,5.982c-2.639,1.227-5.338,1.84-8.099,1.84
			c-3.498,0-6.366-0.46-8.605-1.38c-2.24-0.92-4.003-2.223-5.292-3.912c-1.289-1.687-2.195-3.742-2.715-6.166
			c-0.522-2.423-0.782-5.108-0.782-8.053V20.189h13.069v26.874c0,3.927,0.613,6.856,1.841,8.789
			c1.227,1.933,3.405,2.899,6.534,2.899c3.558,0,6.135-1.058,7.731-3.175c1.595-2.117,2.393-5.598,2.393-10.446V20.189h13.068
			v47.582H242.897z"/>
		<path fill="#3F51B5" d="M275.844,20.189v6.074h0.184c1.595-2.577,3.619-4.448,6.074-5.614c2.453-1.165,5.154-1.749,8.099-1.749
			c3.742,0,6.963,0.706,9.664,2.117c2.699,1.412,4.938,3.283,6.719,5.614c1.779,2.333,3.097,5.047,3.957,8.145
			c0.859,3.099,1.289,6.336,1.289,9.709c0,3.191-0.43,6.258-1.289,9.204c-0.86,2.945-2.163,5.554-3.911,7.823
			c-1.749,2.271-3.927,4.081-6.535,5.43c-2.608,1.349-5.66,2.024-9.157,2.024c-2.945,0-5.66-0.598-8.145-1.794
			s-4.525-2.959-6.12-5.292h-0.184v22.548h-13.069v-64.24H275.844z M292.824,57.923c1.441-0.858,2.607-1.979,3.498-3.359
			c0.889-1.38,1.519-2.991,1.886-4.832c0.368-1.841,0.552-3.711,0.552-5.614c0-1.901-0.2-3.773-0.598-5.614
			c-0.399-1.841-1.058-3.481-1.979-4.924c-0.92-1.441-2.103-2.607-3.543-3.498c-1.442-0.889-3.207-1.334-5.292-1.334
			c-2.148,0-3.943,0.446-5.384,1.334c-1.442,0.89-2.608,2.041-3.498,3.452c-0.89,1.412-1.519,3.037-1.886,4.877
			c-0.368,1.841-0.552,3.743-0.552,5.706c0,1.903,0.198,3.773,0.598,5.614c0.398,1.841,1.042,3.451,1.933,4.832
			c0.889,1.381,2.071,2.501,3.543,3.359c1.472,0.86,3.251,1.289,5.338,1.289C289.587,59.212,291.381,58.783,292.824,57.923z"/>
		<path fill="#3F51B5" d="M347.537,2.059l25.677,65.712h-9.664l-7.179-19.787h-27.794l-7.363,19.787h-8.927l25.585-65.712H347.537z
			 M353.611,40.621L342.659,9.974h-0.184l-11.136,30.647H353.611z"/>
		<path fill="#3F51B5" d="M384.811,2.059v65.712h-7.823V2.059H384.811z"/>
		<path fill="#3F51B5" d="M403.4,2.059v65.712h-7.823V2.059H403.4z"/>
		<path fill="#3F51B5" d="M414.166,11.63V2.059h7.823v9.571H414.166z M421.989,20.189v47.582h-7.823V20.189H421.989z"/>
		<path fill="#3F51B5" d="M474.447,67.587c-1.351,0.797-3.222,1.196-5.614,1.196c-2.025,0-3.636-0.568-4.832-1.703
			c-1.196-1.134-1.795-2.991-1.795-5.568c-2.148,2.577-4.647,4.434-7.5,5.568c-2.854,1.135-5.937,1.703-9.25,1.703
			c-2.148,0-4.188-0.246-6.12-0.736c-1.933-0.49-3.605-1.257-5.016-2.301c-1.412-1.042-2.531-2.407-3.359-4.095
			c-0.828-1.687-1.243-3.728-1.243-6.12c0-2.699,0.46-4.908,1.381-6.626c0.92-1.717,2.131-3.114,3.635-4.188
			c1.503-1.073,3.221-1.887,5.154-2.439c1.933-0.552,3.911-1.013,5.936-1.381c2.147-0.428,4.188-0.75,6.12-0.966
			c1.933-0.214,3.636-0.521,5.108-0.92c1.473-0.398,2.637-0.98,3.497-1.749c0.858-0.766,1.288-1.887,1.288-3.359
			c0-1.717-0.321-3.098-0.966-4.142c-0.645-1.042-1.473-1.841-2.485-2.393c-1.012-0.552-2.148-0.92-3.405-1.104
			c-1.258-0.184-2.5-0.276-3.728-0.276c-3.312,0-6.074,0.63-8.282,1.887c-2.209,1.258-3.405,3.635-3.59,7.132h-7.823
			c0.122-2.945,0.736-5.43,1.841-7.455s2.577-3.666,4.417-4.924c1.841-1.257,3.941-2.163,6.305-2.715
			c2.361-0.552,4.892-0.829,7.593-0.829c2.146,0,4.279,0.154,6.396,0.46c2.116,0.306,4.033,0.933,5.752,1.882
			c1.717,0.949,3.098,2.281,4.142,3.995c1.042,1.714,1.564,3.949,1.564,6.703v24.429c0,1.838,0.106,3.184,0.322,4.041
			c0.214,0.857,0.935,1.286,2.162,1.286c0.675,0,1.473-0.122,2.394-0.368V67.587z M461.746,43.198
			c-0.982,0.733-2.271,1.267-3.865,1.603c-1.597,0.336-3.268,0.611-5.016,0.824c-1.749,0.214-3.514,0.458-5.292,0.733
			c-1.78,0.274-3.375,0.717-4.786,1.327c-1.412,0.61-2.562,1.48-3.451,2.61c-0.89,1.13-1.334,2.672-1.334,4.625
			c0,1.283,0.26,2.365,0.782,3.251c0.521,0.886,1.196,1.603,2.024,2.152s1.795,0.946,2.899,1.191
			c1.104,0.245,2.269,0.365,3.497,0.365c2.577,0,4.785-0.351,6.626-1.053s3.344-1.587,4.51-2.656
			c1.165-1.069,2.024-2.229,2.577-3.48c0.552-1.251,0.828-2.428,0.828-3.526V43.198z"/>
		<path fill="#3F51B5" d="M487.238,20.189v7.547h0.184c3.252-5.767,8.405-8.651,15.462-8.651c3.129,0,5.736,0.43,7.823,1.289
			c2.085,0.86,3.773,2.057,5.062,3.589c1.288,1.535,2.193,3.359,2.715,5.476c0.521,2.117,0.782,4.464,0.782,7.041v31.292h-7.822
			V35.559c0-2.945-0.86-5.276-2.577-6.995c-1.719-1.717-4.081-2.577-7.087-2.577c-2.393,0-4.464,0.368-6.212,1.104
			c-1.749,0.736-3.207,1.78-4.372,3.129c-1.166,1.351-2.04,2.931-2.623,4.74c-0.583,1.811-0.874,3.789-0.874,5.936v26.874h-7.822
			V20.189H487.238z"/>
		<path fill="#3F51B5" d="M557.644,28.473c-1.964-1.657-4.602-2.485-7.914-2.485c-2.823,0-5.186,0.522-7.087,1.564
			c-1.902,1.044-3.421,2.424-4.556,4.142c-1.136,1.718-1.948,3.697-2.439,5.936c-0.491,2.241-0.735,4.556-0.735,6.949
			c0,2.208,0.26,4.357,0.782,6.442c0.521,2.086,1.334,3.943,2.438,5.568c1.104,1.626,2.545,2.931,4.325,3.912
			c1.779,0.982,3.896,1.472,6.351,1.472c3.865,0,6.887-1.012,9.065-3.037c2.177-2.024,3.512-4.877,4.004-8.559h8.007
			c-0.86,5.89-3.054,10.432-6.581,13.621c-3.528,3.191-8.329,4.786-14.403,4.786c-3.62,0-6.826-0.583-9.617-1.749
			c-2.793-1.165-5.124-2.821-6.994-4.97c-1.873-2.147-3.283-4.708-4.234-7.685c-0.951-2.975-1.426-6.242-1.426-9.801
			c0-3.558,0.46-6.887,1.38-9.986c0.921-3.098,2.315-5.798,4.188-8.099c1.871-2.301,4.218-4.11,7.041-5.43
			c2.821-1.319,6.104-1.979,9.848-1.979c2.699,0,5.23,0.322,7.593,0.967c2.361,0.644,4.447,1.642,6.258,2.991
			c1.81,1.351,3.298,3.053,4.464,5.108c1.165,2.057,1.901,4.496,2.209,7.317h-8.099C560.896,32.462,559.606,30.129,557.644,28.473z"
			/>
		<path fill="#3F51B5" d="M610.47,64.734c-3.559,2.701-8.038,4.049-13.437,4.049c-3.805,0-7.103-0.614-9.894-1.84
			c-2.793-1.227-5.14-2.945-7.041-5.154c-1.902-2.208-3.329-4.846-4.279-7.915c-0.952-3.067-1.488-6.411-1.61-10.032
			c0-3.62,0.552-6.933,1.656-9.939c1.104-3.006,2.653-5.614,4.647-7.823c1.993-2.208,4.356-3.926,7.087-5.154
			c2.729-1.227,5.721-1.841,8.974-1.841c4.233,0,7.745,0.875,10.537,2.623c2.792,1.749,5.03,3.974,6.719,6.672
			c1.687,2.701,2.854,5.646,3.497,8.835c0.645,3.191,0.905,6.228,0.782,9.111h-35.616c-0.062,2.086,0.184,4.065,0.735,5.936
			c0.553,1.873,1.441,3.529,2.67,4.97c1.227,1.442,2.791,2.593,4.693,3.452c1.901,0.86,4.142,1.288,6.719,1.288
			c3.312,0,6.027-0.766,8.145-2.301c2.117-1.533,3.512-3.865,4.188-6.995h7.73C616.328,58.016,614.027,62.035,610.47,64.734z
			 M608.583,34.179c-0.706-1.657-1.656-3.083-2.853-4.28c-1.196-1.196-2.608-2.147-4.233-2.853
			c-1.627-0.705-3.422-1.058-5.385-1.058c-2.024,0-3.851,0.354-5.476,1.058c-1.626,0.706-3.022,1.673-4.188,2.899
			c-1.166,1.228-2.087,2.654-2.761,4.279c-0.676,1.626-1.074,3.359-1.196,5.2h27.334C609.702,37.584,609.288,35.835,608.583,34.179z
			"/>
	</g>
</g>
</svg>
