<?xml version="1.0" encoding="utf-8"?>
<!-- Generator: Adobe Illustrator 15.0.0, SVG Export Plug-In . SVG Version: 6.00 Build 0)  -->
<!DOCTYPE svg PUBLIC "-//W3C//DTD SVG 1.1//EN" "http://www.w3.org/Graphics/SVG/1.1/DTD/svg11.dtd">
<svg version="1.1" xmlns="http://www.w3.org/2000/svg" xmlns:xlink="http://www.w3.org/1999/xlink" x="0px" y="0px" width="699.5px"
	 height="198.714px" viewBox="0 0 699.5 198.714" enable-background="new 0 0 699.5 198.714" xml:space="preserve">
<g id="Startup_Alliance">
	<g>
		<path fill="#1B4995" d="M255.958,55.951c-1.26-1.739-2.97-3.164-5.13-4.275c-2.16-1.109-4.59-1.665-7.29-1.665
			c-1.44,0-2.896,0.196-4.365,0.585c-1.471,0.391-2.805,1.021-4.005,1.89c-1.201,0.871-2.175,1.951-2.925,3.24
			c-0.751,1.291-1.125,2.835-1.125,4.635c0,1.741,0.344,3.195,1.035,4.365c0.689,1.17,1.62,2.16,2.79,2.97
			c1.17,0.81,2.55,1.5,4.14,2.07c1.589,0.571,3.285,1.156,5.085,1.755c2.16,0.661,4.35,1.41,6.57,2.25
			c2.219,0.841,4.23,1.95,6.03,3.33c1.8,1.381,3.27,3.105,4.41,5.175c1.139,2.07,1.71,4.695,1.71,7.875
			c0,3.3-0.616,6.165-1.845,8.595c-1.23,2.43-2.866,4.441-4.905,6.03c-2.041,1.59-4.396,2.776-7.065,3.555
			c-2.67,0.779-5.416,1.17-8.235,1.17c-4.021,0-7.906-0.781-11.655-2.34c-3.75-1.559-6.855-3.87-9.315-6.93l6.93-5.85
			c1.5,2.221,3.51,4.021,6.03,5.4c2.52,1.381,5.25,2.07,8.19,2.07c1.499,0,3-0.21,4.5-0.63c1.499-0.419,2.865-1.08,4.095-1.98
			c1.229-0.9,2.234-2.025,3.015-3.375c0.779-1.35,1.17-2.984,1.17-4.905c0-1.919-0.405-3.524-1.215-4.815
			c-0.81-1.29-1.905-2.385-3.285-3.285c-1.381-0.9-2.985-1.665-4.815-2.295c-1.831-0.63-3.766-1.274-5.805-1.935
			c-2.041-0.599-4.05-1.334-6.03-2.205c-1.98-0.869-3.75-1.98-5.31-3.33c-1.561-1.35-2.821-3.015-3.78-4.995
			c-0.96-1.98-1.44-4.44-1.44-7.38c0-3.179,0.644-5.909,1.935-8.19c1.29-2.279,2.97-4.169,5.04-5.67
			c2.07-1.499,4.41-2.595,7.02-3.285c2.61-0.689,5.234-1.035,7.875-1.035c3.719,0,7.2,0.661,10.44,1.98
			c3.24,1.32,5.85,3.091,7.83,5.31L255.958,55.951z"/>
		<path fill="#1B4995" d="M317.877,72.151h-11.34v22.163c0,2.572,0.479,4.411,1.44,5.518c0.959,1.106,2.489,1.659,4.59,1.659
			c0.779,0,1.62-0.082,2.52-0.248c0.9-0.165,1.71-0.412,2.43-0.742l0.27,6.93c-1.021,0.36-2.146,0.644-3.375,0.855
			c-1.23,0.21-2.506,0.315-3.825,0.315c-4.021,0-7.096-1.11-9.225-3.33c-2.13-2.219-3.195-5.549-3.195-9.99v-23.13h-8.19v-6.93h8.19
			v-12.24h8.37v12.24h11.34V72.151z"/>
		<path fill="#1B4995" d="M375.656,80.251c0-3.18-0.96-5.535-2.88-7.065c-1.921-1.53-4.47-2.295-7.65-2.295
			c-2.4,0-4.666,0.466-6.795,1.395c-2.13,0.931-3.915,2.115-5.355,3.555l-4.5-5.4c2.1-1.98,4.665-3.54,7.695-4.68
			c3.029-1.139,6.285-1.71,9.765-1.71c3.06,0,5.715,0.436,7.965,1.305c2.25,0.871,4.095,2.056,5.535,3.555
			c1.44,1.5,2.52,3.271,3.24,5.31c0.72,2.041,1.08,4.23,1.08,6.57v18.63c0,1.44,0.045,2.956,0.135,4.545
			c0.09,1.59,0.254,2.896,0.495,3.915h-7.65c-0.481-2.039-0.72-4.08-0.72-6.12h-0.27c-1.561,2.281-3.526,4.05-5.895,5.31
			c-2.371,1.26-5.175,1.89-8.415,1.89c-1.681,0-3.436-0.225-5.265-0.675c-1.831-0.45-3.496-1.184-4.995-2.205
			c-1.5-1.02-2.745-2.37-3.735-4.05c-0.99-1.679-1.485-3.749-1.485-6.21c0-3.24,0.869-5.805,2.61-7.695
			c1.74-1.89,4.019-3.33,6.84-4.32c2.82-0.99,5.999-1.634,9.54-1.935c3.54-0.3,7.11-0.45,10.71-0.45V80.251z M373.586,87.541
			c-2.101,0-4.275,0.09-6.525,0.27c-2.25,0.18-4.291,0.54-6.12,1.08c-1.831,0.54-3.346,1.35-4.545,2.43
			c-1.201,1.08-1.8,2.52-1.8,4.32c0,1.26,0.255,2.311,0.765,3.15c0.509,0.841,1.184,1.53,2.025,2.07
			c0.84,0.54,1.769,0.916,2.79,1.125c1.02,0.211,2.07,0.315,3.15,0.315c3.96,0,7.005-1.184,9.135-3.555
			c2.129-2.37,3.195-5.355,3.195-8.955v-2.25H373.586z"/>
		<path fill="#1B4995" d="M420.296,69.991c-0.061-1.8-0.151-3.389-0.271-4.77h8.01c0.12,1.08,0.21,2.326,0.271,3.735
			c0.06,1.41,0.09,2.565,0.09,3.465h0.271c1.199-2.52,2.954-4.545,5.265-6.075c2.31-1.53,4.905-2.295,7.785-2.295
			c1.319,0,2.43,0.121,3.33,0.36l-0.36,7.83c-1.201-0.299-2.49-0.45-3.869-0.45c-2.041,0-3.812,0.375-5.311,1.125
			c-1.5,0.751-2.745,1.755-3.735,3.015c-0.989,1.26-1.726,2.716-2.204,4.365c-0.481,1.651-0.721,3.375-0.721,5.175v22.41h-8.46
			v-33.48C420.386,73.262,420.355,71.791,420.296,69.991z"/>
		<path fill="#1B4995" d="M500.035,72.151h-11.34v22.163c0,2.572,0.48,4.411,1.44,5.518c0.959,1.106,2.489,1.659,4.59,1.659
			c0.779,0,1.62-0.082,2.521-0.248c0.899-0.165,1.709-0.412,2.43-0.742l0.27,6.93c-1.021,0.36-2.146,0.644-3.375,0.855
			c-1.23,0.21-2.506,0.315-3.824,0.315c-4.021,0-7.096-1.11-9.226-3.33c-2.13-2.219-3.194-5.549-3.194-9.99v-23.13h-8.19v-6.93h8.19
			v-12.24h8.369v12.24h11.34V72.151z"/>
		<path fill="#1B4995" d="M561.325,107.881c-0.121-1.08-0.211-2.295-0.271-3.645c-0.061-1.35-0.09-2.475-0.09-3.375h-0.18
			c-1.08,2.281-2.896,4.216-5.445,5.805c-2.551,1.589-5.386,2.385-8.505,2.385c-2.761,0-5.146-0.45-7.155-1.35
			c-2.011-0.9-3.66-2.145-4.949-3.735c-1.291-1.589-2.25-3.434-2.881-5.535c-0.629-2.099-0.944-4.349-0.944-6.75v-26.46h8.46v23.58
			c0,1.741,0.135,3.406,0.404,4.995c0.271,1.59,0.766,2.985,1.485,4.185c0.72,1.201,1.71,2.16,2.97,2.88s2.881,1.08,4.86,1.08
			c3.42,0,6.179-1.274,8.28-3.825c2.1-2.549,3.15-5.954,3.15-10.215v-22.68h8.459v33.48c0,1.141,0.029,2.61,0.09,4.41
			c0.06,1.8,0.15,3.391,0.271,4.77H561.325z"/>
		<path fill="#1B4995" d="M612.805,129.481h-8.461v-64.26h8.28v6.66h0.271c1.375-2.279,3.396-4.154,6.059-5.625
			c2.664-1.47,5.761-2.205,9.293-2.205c3.173,0,6.06,0.571,8.664,1.71c2.604,1.141,4.848,2.731,6.732,4.77
			c1.885,2.041,3.336,4.426,4.354,7.155c1.019,2.731,1.527,5.656,1.527,8.775c0,3.121-0.509,6.061-1.527,8.82
			c-1.019,2.761-2.454,5.161-4.309,7.2c-1.856,2.041-4.101,3.645-6.733,4.815c-2.634,1.17-5.597,1.755-8.887,1.755
			c-3.054,0-5.927-0.661-8.619-1.98c-2.695-1.319-4.82-3.18-6.375-5.58h-0.27V129.481z M640.885,86.461c0-1.98-0.301-3.899-0.9-5.76
			c-0.601-1.859-1.5-3.51-2.7-4.95s-2.687-2.579-4.455-3.42c-1.771-0.84-3.825-1.26-6.165-1.26c-2.16,0-4.126,0.42-5.895,1.26
			c-1.771,0.841-3.285,1.98-4.545,3.42s-2.236,3.091-2.926,4.95c-0.689,1.861-1.035,3.811-1.035,5.85
			c0,2.041,0.346,3.991,1.035,5.85c0.689,1.86,1.666,3.496,2.926,4.905c1.26,1.411,2.773,2.536,4.545,3.375
			c1.769,0.841,3.734,1.26,5.895,1.26c2.34,0,4.395-0.435,6.165-1.305c1.769-0.869,3.255-2.025,4.455-3.465s2.1-3.089,2.7-4.95
			C640.584,90.362,640.885,88.441,640.885,86.461z"/>
		<path fill="#1B4995" d="M226.888,197.88h-9.9l27.63-63.72h8.1l27.36,63.72h-10.08l-6.48-15.66h-30.24L226.888,197.88z
			 M236.428,174.39h23.85l-11.88-29.88L236.428,174.39z"/>
		<path fill="#1B4995" d="M318.958,197.88h-8.46v-68.04h8.46V197.88z"/>
		<path fill="#1B4995" d="M364.857,197.88h-8.46v-68.04h8.46V197.88z"/>
		<path fill="#1B4995" d="M412.017,139.831c0,1.561-0.552,2.85-1.652,3.87c-1.101,1.021-2.426,1.53-3.973,1.53
			s-2.856-0.524-3.928-1.575c-1.071-1.049-1.607-2.324-1.607-3.825c0-1.56,0.536-2.865,1.607-3.915
			c1.071-1.049,2.381-1.575,3.928-1.575s2.872,0.526,3.973,1.575C411.465,136.966,412.017,138.271,412.017,139.831z M410.666,197.88
			h-8.459v-42.66h8.459V197.88z"/>
		<path fill="#1B4995" d="M474.476,170.25c0-3.18-0.96-5.535-2.88-7.065c-1.921-1.53-4.471-2.295-7.65-2.295
			c-2.4,0-4.666,0.466-6.795,1.395c-2.13,0.931-3.914,2.115-5.354,3.555l-4.5-5.4c2.1-1.98,4.665-3.54,7.694-4.68
			c3.029-1.139,6.285-1.71,9.766-1.71c3.061,0,5.715,0.436,7.965,1.305c2.25,0.871,4.096,2.056,5.535,3.555
			c1.439,1.5,2.52,3.271,3.24,5.31c0.72,2.041,1.08,4.23,1.08,6.57v18.63c0,1.44,0.045,2.956,0.135,4.545
			c0.09,1.591,0.254,2.896,0.494,3.915h-7.649c-0.481-2.039-0.72-4.079-0.72-6.12h-0.27c-1.562,2.281-3.526,4.05-5.896,5.311
			c-2.371,1.26-5.175,1.89-8.415,1.89c-1.681,0-3.436-0.225-5.266-0.675s-3.496-1.185-4.994-2.205
			c-1.501-1.02-2.745-2.37-3.735-4.05s-1.485-3.749-1.485-6.21c0-3.24,0.869-5.806,2.61-7.695c1.739-1.89,4.019-3.33,6.84-4.32
			c2.819-0.99,5.999-1.634,9.54-1.935c3.539-0.3,7.11-0.45,10.71-0.45V170.25z M472.406,177.541c-2.102,0-4.275,0.09-6.525,0.27
			c-2.25,0.18-4.291,0.541-6.12,1.08c-1.831,0.54-3.346,1.351-4.545,2.431c-1.201,1.079-1.8,2.52-1.8,4.319
			c0,1.26,0.254,2.311,0.765,3.15c0.509,0.841,1.185,1.53,2.024,2.07c0.84,0.539,1.77,0.915,2.791,1.125
			c1.02,0.211,2.07,0.314,3.149,0.314c3.96,0,7.005-1.184,9.136-3.555c2.129-2.37,3.194-5.355,3.194-8.955v-2.25H472.406z"/>
		<path fill="#1B4995" d="M526.855,155.22c0.119,1.08,0.209,2.295,0.27,3.645c0.059,1.35,0.09,2.475,0.09,3.375h0.27
			c0.541-1.139,1.275-2.205,2.205-3.195c0.93-0.99,1.994-1.859,3.195-2.61c1.199-0.75,2.521-1.334,3.961-1.755
			c1.439-0.419,2.938-0.63,4.5-0.63c2.758,0,5.129,0.465,7.109,1.395c1.98,0.931,3.629,2.175,4.95,3.735
			c1.319,1.561,2.295,3.391,2.925,5.49c0.63,2.101,0.945,4.351,0.945,6.75v26.46h-8.461v-23.67c0-1.74-0.135-3.389-0.404-4.95
			c-0.27-1.56-0.766-2.939-1.485-4.14c-0.72-1.2-1.71-2.16-2.97-2.88c-1.26-0.72-2.88-1.08-4.859-1.08
			c-3.361,0-6.106,1.276-8.236,3.825c-2.13,2.551-3.194,5.956-3.194,10.215v22.68h-8.46V164.4c0-1.139-0.031-2.61-0.09-4.41
			c-0.061-1.8-0.15-3.389-0.27-4.77H526.855z"/>
		<path fill="#1B4995" d="M622.164,166.021c-0.9-1.38-2.25-2.534-4.05-3.465c-1.8-0.929-3.722-1.395-5.761-1.395
			c-2.22,0-4.185,0.421-5.895,1.26c-1.71,0.841-3.166,1.966-4.365,3.375c-1.201,1.411-2.115,3.046-2.744,4.905
			c-0.631,1.861-0.945,3.811-0.945,5.85c0,2.041,0.314,3.991,0.945,5.85c0.629,1.861,1.543,3.496,2.744,4.905
			c1.199,1.411,2.67,2.536,4.41,3.375c1.74,0.841,3.72,1.26,5.94,1.26c2.159,0,4.124-0.419,5.896-1.26
			c1.769-0.839,3.224-1.979,4.364-3.42l5.67,5.13c-1.8,2.102-4.05,3.735-6.75,4.905s-5.76,1.755-9.18,1.755
			c-3.301,0-6.345-0.54-9.136-1.62c-2.789-1.08-5.205-2.595-7.244-4.545c-2.041-1.949-3.646-4.305-4.815-7.064
			s-1.755-5.851-1.755-9.271c0-3.359,0.569-6.419,1.71-9.18c1.14-2.759,2.729-5.13,4.771-7.11c2.039-1.98,4.455-3.51,7.244-4.59
			c2.791-1.08,5.805-1.62,9.045-1.62c3,0,5.985,0.601,8.955,1.8c2.971,1.201,5.324,2.94,7.065,5.22L622.164,166.021z"/>
		<path fill="#1B4995" d="M699.113,176.19c0,0.481,0,0.96,0,1.44c0,0.481-0.031,0.961-0.09,1.44h-33.931
			c0.06,1.788,0.465,3.472,1.216,5.05c0.749,1.579,1.755,2.95,3.015,4.111c1.26,1.162,2.714,2.07,4.365,2.726
			c1.649,0.655,3.404,0.982,5.265,0.982c2.88,0,5.369-0.63,7.47-1.89c2.1-1.26,3.749-2.79,4.95-4.59l5.94,4.77
			c-2.281,3.023-4.966,5.25-8.056,6.679c-3.091,1.428-6.524,2.142-10.305,2.142c-3.24,0-6.241-0.54-9-1.62
			c-2.761-1.08-5.13-2.595-7.11-4.545c-1.979-1.949-3.541-4.305-4.68-7.064c-1.141-2.76-1.71-5.819-1.71-9.181
			c0-3.299,0.556-6.345,1.668-9.135s2.66-5.175,4.645-7.155s4.33-3.524,7.035-4.635c2.706-1.109,5.621-1.665,8.749-1.665
			c3.126,0,5.967,0.511,8.523,1.53c2.555,1.021,4.719,2.49,6.493,4.41c1.773,1.921,3.142,4.246,4.104,6.975
			C698.632,169.696,699.113,172.771,699.113,176.19z M690.473,172.771c-0.06-1.679-0.346-3.254-0.854-4.725
			c-0.511-1.47-1.26-2.745-2.25-3.825s-2.221-1.935-3.69-2.565c-1.471-0.63-3.194-0.945-5.175-0.945c-1.8,0-3.496,0.315-5.085,0.945
			c-1.59,0.63-2.97,1.485-4.14,2.565s-2.131,2.355-2.88,3.825c-0.751,1.471-1.186,3.046-1.306,4.725H690.473z"/>
	</g>
</g>
<g id="square">
	<rect x="0.5" fill="#1B4995" width="198.317" height="198.317"/>
</g>
<g id="SA">
	<g>
		<defs>
			<rect id="SVGID_1_" width="199.817" height="198.817"/>
		</defs>
		<clipPath id="SVGID_2_">
			<use xlink:href="#SVGID_1_"  overflow="visible"/>
		</clipPath>
		<g clip-path="url(#SVGID_2_)">
			<path fill="#FFFFFF" d="M75.409,69.11c-3.345-4.253-7.716-7.638-13.11-10.146c-5.397-2.508-10.602-3.762-15.618-3.762
				c-2.586,0-5.208,0.228-7.866,0.684c-2.661,0.456-5.055,1.332-7.182,2.622c-2.13,1.293-3.916,2.964-5.358,5.016
				c-1.447,2.052-2.166,4.674-2.166,7.866c0,2.736,0.57,5.016,1.71,6.84c1.14,1.824,2.811,3.42,5.016,4.788
				c2.202,1.368,4.824,2.622,7.866,3.762c3.039,1.14,6.459,2.319,10.26,3.534c5.472,1.824,11.172,3.84,17.1,6.042
				c5.928,2.205,11.322,5.13,16.188,8.778c4.863,3.648,8.892,8.173,12.084,13.566c3.192,5.397,4.788,12.123,4.788,20.178
				c0,9.273-1.71,17.292-5.13,24.054c-3.42,6.765-8.019,12.351-13.794,16.758c-5.778,4.411-12.391,7.677-19.836,9.804
				c-7.449,2.126-15.126,3.192-23.028,3.192c-11.553,0-22.725-2.017-33.516-6.042c-10.794-4.026-19.761-9.765-26.904-17.214
				l25.536-25.992c3.951,4.866,9.156,8.931,15.618,12.198c6.458,3.27,12.882,4.902,19.266,4.902c2.886,0,5.7-0.303,8.436-0.912
				c2.736-0.605,5.13-1.596,7.182-2.964c2.052-1.368,3.684-3.192,4.902-5.472c1.215-2.28,1.824-5.016,1.824-8.208
				c0-3.039-0.763-5.622-2.28-7.752c-1.521-2.127-3.687-4.065-6.498-5.814c-2.814-1.746-6.309-3.342-10.488-4.788
				c-4.182-1.443-8.931-3-14.25-4.674c-5.169-1.671-10.224-3.648-15.162-5.928c-4.941-2.28-9.348-5.205-13.224-8.778
				c-3.876-3.57-6.994-7.902-9.348-12.996c-2.358-5.091-3.534-11.286-3.534-18.582c0-8.967,1.824-16.644,5.472-23.028
				c3.648-6.384,8.436-11.628,14.364-15.732c5.928-4.104,12.615-7.104,20.064-9.006c7.446-1.898,14.97-2.85,22.572-2.85
				c9.12,0,18.429,1.674,27.93,5.016c9.498,3.345,17.82,8.287,24.966,14.82L75.409,69.11z"/>
		</g>
		<g clip-path="url(#SVGID_2_)">
			<path fill="#FFFFFF" d="M182.347,199.658l-12.54-31.692h-62.472l-11.856,31.692H53.071l67.716-161.424h37.848l67.032,161.424
				H182.347z M139.027,81.326l-20.52,55.404h40.584L139.027,81.326z"/>
		</g>
	</g>
</g>
</svg>
