<?xml version="1.0" encoding="utf-8"?>
<!-- Generator: Adobe Illustrator 15.0.0, SVG Export Plug-In . SVG Version: 6.00 Build 0)  -->
<!DOCTYPE svg PUBLIC "-//W3C//DTD SVG 1.1//EN" "http://www.w3.org/Graphics/SVG/1.1/DTD/svg11.dtd">
<svg version="1.1" xmlns="http://www.w3.org/2000/svg" xmlns:xlink="http://www.w3.org/1999/xlink" x="0px" y="0px"
	 width="198.813px" height="198.546px" viewBox="0 0 198.813 198.546" enable-background="new 0 0 198.813 198.546"
	 xml:space="preserve">
<g id="Layer_1">
</g>
<g id="Layer_2">
</g>
<g id="square">
	<rect x="0.5" fill="#1B4995" width="198.317" height="198.317"/>
</g>
<g id="SA">
	<g>
		<defs>
			<rect id="SVGID_1_" width="199.817" height="198.817"/>
		</defs>
		<clipPath id="SVGID_2_">
			<use xlink:href="#SVGID_1_"  overflow="visible"/>
		</clipPath>
		<g clip-path="url(#SVGID_2_)">
			<path fill="#FFFFFF" d="M75.409,69.11c-3.345-4.253-7.716-7.638-13.11-10.146c-5.397-2.508-10.602-3.762-15.618-3.762
				c-2.586,0-5.208,0.228-7.866,0.684c-2.661,0.456-5.055,1.332-7.182,2.622c-2.13,1.293-3.916,2.964-5.358,5.016
				c-1.447,2.052-2.166,4.674-2.166,7.866c0,2.736,0.57,5.016,1.71,6.84c1.14,1.824,2.811,3.42,5.016,4.788
				c2.202,1.368,4.824,2.622,7.866,3.762c3.039,1.14,6.459,2.319,10.26,3.534c5.472,1.824,11.172,3.84,17.1,6.042
				c5.928,2.205,11.322,5.13,16.188,8.778c4.863,3.648,8.892,8.173,12.084,13.566c3.192,5.397,4.788,12.123,4.788,20.178
				c0,9.273-1.71,17.292-5.13,24.054c-3.42,6.765-8.019,12.351-13.794,16.758c-5.778,4.411-12.391,7.677-19.836,9.804
				c-7.449,2.126-15.126,3.192-23.028,3.192c-11.553,0-22.725-2.017-33.516-6.042c-10.794-4.026-19.761-9.765-26.904-17.214
				l25.536-25.992c3.951,4.866,9.156,8.931,15.618,12.198c6.458,3.27,12.882,4.902,19.266,4.902c2.886,0,5.7-0.303,8.436-0.912
				c2.736-0.605,5.13-1.596,7.182-2.964c2.052-1.368,3.684-3.192,4.902-5.472c1.215-2.28,1.824-5.016,1.824-8.208
				c0-3.039-0.763-5.622-2.28-7.752c-1.521-2.127-3.687-4.065-6.498-5.814c-2.814-1.746-6.309-3.342-10.488-4.788
				c-4.182-1.443-8.931-3-14.25-4.674c-5.169-1.671-10.224-3.648-15.162-5.928c-4.941-2.28-9.348-5.205-13.224-8.778
				c-3.876-3.57-6.994-7.902-9.348-12.996c-2.358-5.091-3.534-11.286-3.534-18.582c0-8.967,1.824-16.644,5.472-23.028
				c3.648-6.384,8.436-11.628,14.364-15.732c5.928-4.104,12.615-7.104,20.064-9.006c7.446-1.898,14.97-2.85,22.572-2.85
				c9.12,0,18.429,1.674,27.93,5.016c9.498,3.345,17.82,8.287,24.966,14.82L75.409,69.11z"/>
		</g>
		<g clip-path="url(#SVGID_2_)">
			<path fill="#FFFFFF" d="M182.347,199.658l-12.54-31.692h-62.472l-11.856,31.692H53.071l67.716-161.424h37.848l67.032,161.424
				H182.347z M139.027,81.326l-20.52,55.404h40.584L139.027,81.326z"/>
		</g>
	</g>
</g>
</svg>
