<?xml version="1.0" encoding="utf-8"?>
<!-- Generator: Adobe Illustrator 15.0.0, SVG Export Plug-In . SVG Version: 6.00 Build 0)  -->
<!DOCTYPE svg PUBLIC "-//W3C//DTD SVG 1.1//EN" "http://www.w3.org/Graphics/SVG/1.1/DTD/svg11.dtd">
<svg version="1.1" xmlns="http://www.w3.org/2000/svg" xmlns:xlink="http://www.w3.org/1999/xlink" x="0px" y="0px"
	 width="185.001px" height="185.167px" viewBox="0 0 185.001 185.167" enable-background="new 0 0 185.001 185.167"
	 xml:space="preserve">
<g id="Layer_1">
</g>
<g id="favicon">
	<rect x="0.73" y="0.5" fill="#FF5722" width="183.77" height="183.771"/>
	<g>
		<defs>
			<rect id="SVGID_1_" x="0.73" y="0.5" width="183.77" height="183.771"/>
		</defs>
		<clipPath id="SVGID_2_">
			<use xlink:href="#SVGID_1_"  overflow="visible"/>
		</clipPath>
		<g clip-path="url(#SVGID_2_)">
			<path fill="#3F51B5" d="M76.116,40.279c-3.213-4.086-7.412-7.336-12.593-9.746c-5.184-2.409-10.183-3.614-15.001-3.614
				c-2.484,0-5.002,0.219-7.555,0.657c-2.556,0.438-4.856,1.28-6.898,2.519c-2.046,1.242-3.761,2.847-5.146,4.818
				c-1.39,1.971-2.081,4.49-2.081,7.556c0,2.628,0.547,4.818,1.643,6.57c1.095,1.752,2.7,3.285,4.818,4.599
				c2.115,1.314,4.633,2.519,7.555,3.613c2.919,1.095,6.204,2.228,9.855,3.395c5.256,1.752,10.731,3.689,16.425,5.804
				c5.694,2.118,10.875,4.927,15.549,8.432c4.671,3.504,8.541,7.85,11.607,13.03c3.066,5.184,4.599,11.645,4.599,19.381
				c0,8.907-1.643,16.61-4.927,23.104c-3.285,6.499-7.703,11.864-13.25,16.097c-5.55,4.236-11.901,7.374-19.053,9.417
				c-7.155,2.043-14.529,3.066-22.119,3.066c-11.097,0-21.828-1.937-32.193-5.803c-10.368-3.867-18.981-9.379-25.842-16.535
				l24.528-24.966c3.795,4.674,8.794,8.579,15.001,11.716c6.204,3.141,12.374,4.708,18.505,4.708c2.772,0,5.475-0.291,8.103-0.876
				c2.628-0.582,4.928-1.533,6.898-2.847c1.971-1.314,3.539-3.066,4.708-5.256c1.167-2.19,1.752-4.818,1.752-7.884
				c0-2.919-0.732-5.4-2.19-7.446c-1.461-2.043-3.542-3.904-6.241-5.584c-2.703-1.677-6.06-3.209-10.074-4.599
				c-4.017-1.386-8.579-2.881-13.688-4.489c-4.965-1.605-9.821-3.504-14.563-5.694c-4.746-2.19-8.979-5-12.702-8.432
				c-3.723-3.429-6.717-7.59-8.979-12.483c-2.266-4.89-3.395-10.841-3.395-17.849c0-8.613,1.752-15.987,5.256-22.119
				c3.504-6.132,8.103-11.169,13.797-15.111s12.117-6.823,19.272-8.65c7.152-1.824,14.379-2.738,21.681-2.738
				c8.76,0,17.701,1.608,26.828,4.818c9.123,3.213,17.116,7.959,23.98,14.235L76.116,40.279z"/>
		</g>
		<g clip-path="url(#SVGID_2_)">
			<path fill="#3F51B5" d="M171.1,184.611l-12.045-30.441H99.049l-11.388,30.441H46.927L111.97,29.56h36.354l64.386,155.052H171.1z
				 M129.49,70.95l-19.71,53.217h38.982L129.49,70.95z"/>
		</g>
	</g>
</g>
</svg>
